<svg xmlns="http://www.w3.org/2000/svg" xmlns:xlink="http://www.w3.org/1999/xlink" width="1260" height="298.81"><rect width="1260" height="298.81" rx="5" ry="5" class="a"/><svg y="0%" x="0%"><circle cx="20" cy="20" r="6" fill="#ff5f58"/><circle cx="40" cy="20" r="6" fill="#ffbd2e"/><circle cx="60" cy="20" r="6" fill="#18c132"/></svg><svg height="238.81" viewBox="0 0 122 23.881" width="1220" x="15" xmlns="http://www.w3.org/2000/svg" xmlns:xlink="http://www.w3.org/1999/xlink" y="50"><style>@keyframes p{0%{transform:translateX(0)}1.5%{transform:translateX(-122px)}2%{transform:translateX(-366px)}2.1%{transform:translateX(-732px)}2.4%{transform:translateX(-854px)}3.7%{transform:translateX(-976px)}13%{transform:translateX(-1098px)}14.9%{transform:translateX(-1220px)}16.8%{transform:translateX(-1342px)}19.5%{transform:translateX(-1464px)}20.2%{transform:translateX(-1586px)}25.3%{transform:translateX(-1708px)}28.5%{transform:translateX(-1830px)}31.6%{transform:translateX(-1952px)}37.2%{transform:translateX(-2196px)}37.3%{transform:translateX(-2562px)}39.1%{transform:translateX(-2806px)}39.7%{transform:translateX(-3172px)}40.2%{transform:translateX(-3416px)}40.8%{transform:translateX(-3660px)}41.4%{transform:translateX(-3904px)}42%{transform:translateX(-4148px)}42.6%{transform:translateX(-4392px)}43.2%{transform:translateX(-4636px)}43.8%{transform:translateX(-4880px)}44.4%{transform:translateX(-5124px)}45%{transform:translateX(-5368px)}45.6%{transform:translateX(-5612px)}46.2%{transform:translateX(-5856px)}46.7%{transform:translateX(-5978px)}46.8%{transform:translateX(-6100px)}47.3%{transform:translateX(-6344px)}47.9%{transform:translateX(-6588px)}48.5%{transform:translateX(-6832px)}49.1%{transform:translateX(-7076px)}49.7%{transform:translateX(-7320px)}50.3%{transform:translateX(-7564px)}50.9%{transform:translateX(-7808px)}51.5%{transform:translateX(-8052px)}52.1%{transform:translateX(-8296px)}52.7%{transform:translateX(-8540px)}53.3%{transform:translateX(-8784px)}53.8%{transform:translateX(-9028px)}54.4%{transform:translateX(-9272px)}55%{transform:translateX(-9516px)}55.6%{transform:translateX(-9760px)}56.2%{transform:translateX(-10004px)}56.8%{transform:translateX(-10248px)}57.4%{transform:translateX(-10492px)}58%{transform:translateX(-10736px)}58.6%{transform:translateX(-10980px)}59.2%{transform:translateX(-11224px)}59.7%{transform:translateX(-11468px)}60.3%{transform:translateX(-11712px)}60.9%{transform:translateX(-11956px)}61.5%{transform:translateX(-12200px)}62.1%{transform:translateX(-12444px)}62.7%{transform:translateX(-12688px)}63.3%{transform:translateX(-12932px)}63.9%{transform:translateX(-13176px)}64.5%{transform:translateX(-13420px)}65%{transform:translateX(-13664px)}65.6%{transform:translateX(-13908px)}66.2%{transform:translateX(-14152px)}66.8%{transform:translateX(-14396px)}67.4%{transform:translateX(-14640px)}68%{transform:translateX(-14884px)}68.6%{transform:translateX(-15128px)}69.2%{transform:translateX(-15372px)}69.8%{transform:translateX(-15616px)}70.3%{transform:translateX(-15860px)}70.9%{transform:translateX(-16104px)}71.5%{transform:translateX(-16348px)}72.1%{transform:translateX(-16592px)}72.7%{transform:translateX(-16836px)}73.3%{transform:translateX(-17080px)}73.9%{transform:translateX(-17324px)}74.5%{transform:translateX(-17568px)}75.1%{transform:translateX(-17812px)}75.7%{transform:translateX(-18056px)}76.2%{transform:translateX(-18300px)}76.8%{transform:translateX(-18544px)}77.4%{transform:translateX(-18788px)}78%{transform:translateX(-19032px)}78.6%{transform:translateX(-19276px)}79.2%{transform:translateX(-19520px)}79.6%{transform:translateX(-19886px)}79.7%{transform:translateX(-20374px)}79.8%{transform:translateX(-20740px)}80.1%{transform:translateX(-20862px)}to{transform:translateX(-20984px)}}.a{fill:#282d35}.f{fill:#b9bfca}.g{fill:#71bef2}.h{fill:#6c6c6c}.i{fill:#b9c0cb}.j{fill:#a8cc8c}.k{fill:#e88388}.l{fill:#b9c0cb;text-decoration:underline}.m{fill:#66c2cd}</style><g font-size="1.67" font-family="Monaco,Consolas,Menlo,'Bitstream Vera Sans Mono','Powerline Symbols',monospace"><defs><symbol id="1"><text x="1.002" y="1.67" class="f">▲</text><text x="3.006" y="1.67" class="g">src/js/up</text></symbol><symbol id="2"><text x="1.002" y="1.67" class="f">▲</text><text x="3.006" y="1.67" class="g">src/js/up</text><text x="103.206" y="1.67" class="h">master</text><text x="110.22" y="1.67" class="i">::</text><text x="113.226" y="1.67" class="j">35m</text><text x="117.234" y="1.67" class="i">::</text><text x="120.24" y="1.67" class="k">⬡</text></symbol><symbol id="3"><text x="1.002" y="1.67" class="f">▲</text><text x="3.006" y="1.67" class="g">src/js/up</text><text x="13.026" y="1.67" class="j">up</text><text x="103.206" y="1.67" class="h">master</text><text x="110.22" y="1.67" class="i">::</text><text x="113.226" y="1.67" class="j">35m</text><text x="117.234" y="1.67" class="i">::</text><text x="120.24" y="1.67" class="k">⬡</text></symbol><symbol id="4"><text x="1.002" y="1.67" class="f">▲</text><text x="3.006" y="1.67" class="g">src/js/up</text><text x="13.026" y="1.67" class="j">up</text><text x="16.032" y="1.67" class="l">cutecats.png</text><text x="103.206" y="1.67" class="h">master</text><text x="110.22" y="1.67" class="i">::</text><text x="113.226" y="1.67" class="j">35m</text><text x="117.234" y="1.67" class="i">::</text><text x="120.24" y="1.67" class="k">⬡</text></symbol><symbol id="5"><text y="1.67" class="m">⠋</text><text x="2.004" y="1.67" class="i">Uploading</text><text x="12.024" y="1.67" class="i">cutecats.png…</text></symbol><symbol id="6"><text y="1.67" class="m">⠙</text><text x="2.004" y="1.67" class="i">Uploading</text><text x="12.024" y="1.67" class="i">cutecats.png…</text></symbol><symbol id="7"><text y="1.67" class="m">⠹</text><text x="2.004" y="1.67" class="i">Uploading</text><text x="12.024" y="1.67" class="i">cutecats.png…</text></symbol><symbol id="8"><text y="1.67" class="m">⠸</text><text x="2.004" y="1.67" class="i">Uploading</text><text x="12.024" y="1.67" class="i">cutecats.png…</text></symbol><symbol id="9"><text y="1.67" class="m">⠼</text><text x="2.004" y="1.67" class="i">Uploading</text><text x="12.024" y="1.67" class="i">cutecats.png…</text></symbol><symbol id="10"><text y="1.67" class="m">⠴</text><text x="2.004" y="1.67" class="i">Uploading</text><text x="12.024" y="1.67" class="i">cutecats.png…</text></symbol><symbol id="11"><text y="1.67" class="m">⠦</text><text x="2.004" y="1.67" class="i">Uploading</text><text x="12.024" y="1.67" class="i">cutecats.png…</text></symbol><symbol id="12"><text y="1.67" class="m">⠧</text><text x="2.004" y="1.67" class="i">Uploading</text><text x="12.024" y="1.67" class="i">cutecats.png…</text></symbol><symbol id="13"><text y="1.67" class="m">⠇</text><text x="2.004" y="1.67" class="i">Uploading</text><text x="12.024" y="1.67" class="i">cutecats.png…</text></symbol><symbol id="14"><text y="1.67" class="m">⠏</text><text x="2.004" y="1.67" class="i">Uploading</text><text x="12.024" y="1.67" class="i">cutecats.png…</text></symbol><symbol id="15"><text y="1.67" class="j">✔</text><text x="2.004" y="1.67" class="i">File</text><text x="7.014" y="1.67" class="i">uploaded...</text><text x="19.038" y="1.67" class="i">https://pwnj.pw/crfep.png</text></symbol><symbol id="16"><text x="1.002" y="1.67" class="f">▲</text><text x="3.006" y="1.67" class="g">src/js/up</text><text x="99.198" y="1.67" class="j">6s</text><text x="103.206" y="1.67" class="h">master</text><text x="110.22" y="1.67" class="i">::</text><text x="113.226" y="1.67" class="j">35m</text><text x="117.234" y="1.67" class="i">::</text><text x="120.24" y="1.67" class="k">⬡</text></symbol><symbol id="a"><path fill="transparent" d="M0 0h122v11H0z"/></symbol><symbol id="b"><path fill="#6f7683" d="M0 0h1.102v2.171H0z"/></symbol></defs><path class="a" d="M0 0h122v23.881H0z"/><g style="animation-duration:13.59395s;animation-iteration-count:infinite;animation-name:p;animation-timing-function:steps(1,end)"><svg width="21106"><svg><use xlink:href="#a"/><use xlink:href="#b" x="-.004"/></svg><svg x="122"><use xlink:href="#a"/><use xlink:href="#b" x="-.004"/></svg><svg x="244"><use xlink:href="#a"/><use xlink:href="#b" x="-.004"/></svg><svg x="366"><use xlink:href="#a"/><use xlink:href="#b" x="-.004"/></svg><svg x="488"><use xlink:href="#a"/><use xlink:href="#b" x="12.996" y="2.146"/><use xlink:href="#1" y="2.171"/></svg><svg x="610"><use xlink:href="#a"/><use xlink:href="#b" x="12.996" y="2.146"/><use xlink:href="#1" y="2.171"/></svg><svg x="732"><use xlink:href="#a"/><use xlink:href="#b" x="12.996" y="2.146"/><use xlink:href="#1" y="2.171"/></svg><svg x="854"><use xlink:href="#a"/><use xlink:href="#b" x="12.996" y="2.146"/><use xlink:href="#2" y="2.171"/></svg><svg x="976"><use xlink:href="#a"/><use xlink:href="#b" x="12.996" y="2.146"/><use xlink:href="#2" y="2.171"/></svg><svg x="1098"><use xlink:href="#a"/><use xlink:href="#b" x="13.996" y="2.146"/><text x="1.002" y="3.841" class="f">▲</text><text x="3.006" y="3.841" class="g">src/js/up</text><text x="13.026" y="3.841" fill="#e88388" font-weight="700">u</text><text x="103.206" y="3.841" class="h">master</text><text x="110.22" y="3.841" class="i">::</text><text x="113.226" y="3.841" class="j">35m</text><text x="117.234" y="3.841" class="i">::</text><text x="120.24" y="3.841" class="k">⬡</text></svg><svg x="1220"><use xlink:href="#a"/><use xlink:href="#b" x="14.996" y="2.146"/><use xlink:href="#3" y="2.171"/></svg><svg x="1342"><use xlink:href="#a"/><use xlink:href="#b" x="15.996" y="2.146"/><use xlink:href="#3" y="2.171"/></svg><svg x="1464"><use xlink:href="#a"/><use xlink:href="#b" x="16.996" y="2.146"/><text x="1.002" y="3.841" class="f">▲</text><text x="3.006" y="3.841" class="g">src/js/up</text><text x="13.026" y="3.841" class="j">up</text><text x="16.032" y="3.841" class="l">c</text><text x="103.206" y="3.841" class="h">master</text><text x="110.22" y="3.841" class="i">::</text><text x="113.226" y="3.841" class="j">35m</text><text x="117.234" y="3.841" class="i">::</text><text x="120.24" y="3.841" class="k">⬡</text></svg><svg x="1586"><use xlink:href="#a"/><use xlink:href="#b" x="17.996" y="2.146"/><text x="1.002" y="3.841" class="f">▲</text><text x="3.006" y="3.841" class="g">src/js/up</text><text x="13.026" y="3.841" class="j">up</text><text x="16.032" y="3.841" class="l">cu</text><text x="103.206" y="3.841" class="h">master</text><text x="110.22" y="3.841" class="i">::</text><text x="113.226" y="3.841" class="j">35m</text><text x="117.234" y="3.841" class="i">::</text><text x="120.24" y="3.841" class="k">⬡</text></svg><svg x="1708"><use xlink:href="#a"/><use xlink:href="#b" x="18.996" y="2.146"/><text x="1.002" y="3.841" class="f">▲</text><text x="3.006" y="3.841" class="g">src/js/up</text><text x="13.026" y="3.841" class="j">up</text><text x="16.032" y="3.841" class="l">cut</text><text x="103.206" y="3.841" class="h">master</text><text x="110.22" y="3.841" class="i">::</text><text x="113.226" y="3.841" class="j">35m</text><text x="117.234" y="3.841" class="i">::</text><text x="120.24" y="3.841" class="k">⬡</text></svg><svg x="1830"><use xlink:href="#a"/><use xlink:href="#b" x="19.996" y="2.146"/><text x="1.002" y="3.841" class="f">▲</text><text x="3.006" y="3.841" class="g">src/js/up</text><text x="13.026" y="3.841" class="j">up</text><text x="16.032" y="3.841" class="l">cute</text><text x="103.206" y="3.841" class="h">master</text><text x="110.22" y="3.841" class="i">::</text><text x="113.226" y="3.841" class="j">35m</text><text x="117.234" y="3.841" class="i">::</text><text x="120.24" y="3.841" class="k">⬡</text></svg><svg x="1952"><use xlink:href="#a"/><use xlink:href="#b" x="28.996" y="2.146"/><text x="1.002" y="3.841" class="f">▲</text><text x="3.006" y="3.841" class="g">src/js/up</text><text x="13.026" y="3.841" class="j">up</text><text x="16.032" y="3.841" class="i">cutecats.png</text><text x="103.206" y="3.841" class="h">master</text><text x="110.22" y="3.841" class="i">::</text><text x="113.226" y="3.841" class="j">35m</text><text x="117.234" y="3.841" class="i">::</text><text x="120.24" y="3.841" class="k">⬡</text></svg><svg x="2074"><use xlink:href="#a"/><use xlink:href="#b" x="27.996" y="2.146"/><use xlink:href="#4" y="2.171"/></svg><svg x="2196"><use xlink:href="#a"/><use xlink:href="#b" x="27.996" y="2.146"/><use xlink:href="#4" y="2.171"/></svg><svg x="2318"><use xlink:href="#a"/><use xlink:href="#b" x="-.004" y="4.317"/><use xlink:href="#4" y="2.171"/></svg><svg x="2440"><use xlink:href="#a"/><use xlink:href="#b" x="-.004" y="4.317"/><use xlink:href="#4" y="2.171"/></svg><svg x="2562"><use xlink:href="#a"/><use xlink:href="#b" x="-.004" y="4.317"/><use xlink:href="#4" y="2.171"/></svg><svg x="2684"><use xlink:href="#a"/><use xlink:href="#4" y="2.171"/></svg><svg x="2806"><use xlink:href="#a"/><use xlink:href="#4" y="2.171"/><use xlink:href="#5" y="4.342"/></svg><svg x="2928"><use xlink:href="#a"/><use xlink:href="#4" y="2.171"/></svg><svg x="3050"><use xlink:href="#a"/><use xlink:href="#4" y="2.171"/></svg><svg x="3172"><use xlink:href="#a"/><use xlink:href="#4" y="2.171"/><use xlink:href="#6" y="4.342"/></svg><svg x="3294"><use xlink:href="#a"/><use xlink:href="#4" y="2.171"/></svg><svg x="3416"><use xlink:href="#a"/><use xlink:href="#4" y="2.171"/><use xlink:href="#7" y="4.342"/></svg><svg x="3538"><use xlink:href="#a"/><use xlink:href="#4" y="2.171"/></svg><svg x="3660"><use xlink:href="#a"/><use xlink:href="#4" y="2.171"/><use xlink:href="#8" y="4.342"/></svg><svg x="3782"><use xlink:href="#a"/><use xlink:href="#4" y="2.171"/></svg><svg x="3904"><use xlink:href="#a"/><use xlink:href="#4" y="2.171"/><use xlink:href="#9" y="4.342"/></svg><svg x="4026"><use xlink:href="#a"/><use xlink:href="#4" y="2.171"/></svg><svg x="4148"><use xlink:href="#a"/><use xlink:href="#4" y="2.171"/><use xlink:href="#10" y="4.342"/></svg><svg x="4270"><use xlink:href="#a"/><use xlink:href="#4" y="2.171"/></svg><svg x="4392"><use xlink:href="#a"/><use xlink:href="#4" y="2.171"/><use xlink:href="#11" y="4.342"/></svg><svg x="4514"><use xlink:href="#a"/><use xlink:href="#4" y="2.171"/></svg><svg x="4636"><use xlink:href="#a"/><use xlink:href="#4" y="2.171"/><use xlink:href="#12" y="4.342"/></svg><svg x="4758"><use xlink:href="#a"/><use xlink:href="#4" y="2.171"/></svg><svg x="4880"><use xlink:href="#a"/><use xlink:href="#4" y="2.171"/><use xlink:href="#13" y="4.342"/></svg><svg x="5002"><use xlink:href="#a"/><use xlink:href="#4" y="2.171"/></svg><svg x="5124"><use xlink:href="#a"/><use xlink:href="#4" y="2.171"/><use xlink:href="#14" y="4.342"/></svg><svg x="5246"><use xlink:href="#a"/><use xlink:href="#4" y="2.171"/></svg><svg x="5368"><use xlink:href="#a"/><use xlink:href="#4" y="2.171"/><use xlink:href="#5" y="4.342"/></svg><svg x="5490"><use xlink:href="#a"/><use xlink:href="#4" y="2.171"/></svg><svg x="5612"><use xlink:href="#a"/><use xlink:href="#4" y="2.171"/><use xlink:href="#6" y="4.342"/></svg><svg x="5734"><use xlink:href="#a"/><use xlink:href="#4" y="2.171"/></svg><svg x="5856"><use xlink:href="#a"/><use xlink:href="#4" y="2.171"/><use xlink:href="#7" y="4.342"/></svg><svg x="5978"><use xlink:href="#a"/><use xlink:href="#4" y="2.171"/></svg><svg x="6100"><use xlink:href="#a"/><use xlink:href="#4" y="2.171"/><use xlink:href="#8" y="4.342"/></svg><svg x="6222"><use xlink:href="#a"/><use xlink:href="#4" y="2.171"/></svg><svg x="6344"><use xlink:href="#a"/><use xlink:href="#4" y="2.171"/><use xlink:href="#9" y="4.342"/></svg><svg x="6466"><use xlink:href="#a"/><use xlink:href="#4" y="2.171"/></svg><svg x="6588"><use xlink:href="#a"/><use xlink:href="#4" y="2.171"/><use xlink:href="#10" y="4.342"/></svg><svg x="6710"><use xlink:href="#a"/><use xlink:href="#4" y="2.171"/></svg><svg x="6832"><use xlink:href="#a"/><use xlink:href="#4" y="2.171"/><use xlink:href="#11" y="4.342"/></svg><svg x="6954"><use xlink:href="#a"/><use xlink:href="#4" y="2.171"/></svg><svg x="7076"><use xlink:href="#a"/><use xlink:href="#4" y="2.171"/><use xlink:href="#12" y="4.342"/></svg><svg x="7198"><use xlink:href="#a"/><use xlink:href="#4" y="2.171"/></svg><svg x="7320"><use xlink:href="#a"/><use xlink:href="#4" y="2.171"/><use xlink:href="#13" y="4.342"/></svg><svg x="7442"><use xlink:href="#a"/><use xlink:href="#4" y="2.171"/></svg><svg x="7564"><use xlink:href="#a"/><use xlink:href="#4" y="2.171"/><use xlink:href="#14" y="4.342"/></svg><svg x="7686"><use xlink:href="#a"/><use xlink:href="#4" y="2.171"/></svg><svg x="7808"><use xlink:href="#a"/><use xlink:href="#4" y="2.171"/><use xlink:href="#5" y="4.342"/></svg><svg x="7930"><use xlink:href="#a"/><use xlink:href="#4" y="2.171"/></svg><svg x="8052"><use xlink:href="#a"/><use xlink:href="#4" y="2.171"/><use xlink:href="#6" y="4.342"/></svg><svg x="8174"><use xlink:href="#a"/><use xlink:href="#4" y="2.171"/></svg><svg x="8296"><use xlink:href="#a"/><use xlink:href="#4" y="2.171"/><use xlink:href="#7" y="4.342"/></svg><svg x="8418"><use xlink:href="#a"/><use xlink:href="#4" y="2.171"/></svg><svg x="8540"><use xlink:href="#a"/><use xlink:href="#4" y="2.171"/><use xlink:href="#8" y="4.342"/></svg><svg x="8662"><use xlink:href="#a"/><use xlink:href="#4" y="2.171"/></svg><svg x="8784"><use xlink:href="#a"/><use xlink:href="#4" y="2.171"/><use xlink:href="#9" y="4.342"/></svg><svg x="8906"><use xlink:href="#a"/><use xlink:href="#4" y="2.171"/></svg><svg x="9028"><use xlink:href="#a"/><use xlink:href="#4" y="2.171"/><use xlink:href="#10" y="4.342"/></svg><svg x="9150"><use xlink:href="#a"/><use xlink:href="#4" y="2.171"/></svg><svg x="9272"><use xlink:href="#a"/><use xlink:href="#4" y="2.171"/><use xlink:href="#11" y="4.342"/></svg><svg x="9394"><use xlink:href="#a"/><use xlink:href="#4" y="2.171"/></svg><svg x="9516"><use xlink:href="#a"/><use xlink:href="#4" y="2.171"/><use xlink:href="#12" y="4.342"/></svg><svg x="9638"><use xlink:href="#a"/><use xlink:href="#4" y="2.171"/></svg><svg x="9760"><use xlink:href="#a"/><use xlink:href="#4" y="2.171"/><use xlink:href="#13" y="4.342"/></svg><svg x="9882"><use xlink:href="#a"/><use xlink:href="#4" y="2.171"/></svg><svg x="10004"><use xlink:href="#a"/><use xlink:href="#4" y="2.171"/><use xlink:href="#14" y="4.342"/></svg><svg x="10126"><use xlink:href="#a"/><use xlink:href="#4" y="2.171"/></svg><svg x="10248"><use xlink:href="#a"/><use xlink:href="#4" y="2.171"/><use xlink:href="#5" y="4.342"/></svg><svg x="10370"><use xlink:href="#a"/><use xlink:href="#4" y="2.171"/></svg><svg x="10492"><use xlink:href="#a"/><use xlink:href="#4" y="2.171"/><use xlink:href="#6" y="4.342"/></svg><svg x="10614"><use xlink:href="#a"/><use xlink:href="#4" y="2.171"/></svg><svg x="10736"><use xlink:href="#a"/><use xlink:href="#4" y="2.171"/><use xlink:href="#7" y="4.342"/></svg><svg x="10858"><use xlink:href="#a"/><use xlink:href="#4" y="2.171"/></svg><svg x="10980"><use xlink:href="#a"/><use xlink:href="#4" y="2.171"/><use xlink:href="#8" y="4.342"/></svg><svg x="11102"><use xlink:href="#a"/><use xlink:href="#4" y="2.171"/></svg><svg x="11224"><use xlink:href="#a"/><use xlink:href="#4" y="2.171"/><use xlink:href="#9" y="4.342"/></svg><svg x="11346"><use xlink:href="#a"/><use xlink:href="#4" y="2.171"/></svg><svg x="11468"><use xlink:href="#a"/><use xlink:href="#4" y="2.171"/><use xlink:href="#10" y="4.342"/></svg><svg x="11590"><use xlink:href="#a"/><use xlink:href="#4" y="2.171"/></svg><svg x="11712"><use xlink:href="#a"/><use xlink:href="#4" y="2.171"/><use xlink:href="#11" y="4.342"/></svg><svg x="11834"><use xlink:href="#a"/><use xlink:href="#4" y="2.171"/></svg><svg x="11956"><use xlink:href="#a"/><use xlink:href="#4" y="2.171"/><use xlink:href="#12" y="4.342"/></svg><svg x="12078"><use xlink:href="#a"/><use xlink:href="#4" y="2.171"/></svg><svg x="12200"><use xlink:href="#a"/><use xlink:href="#4" y="2.171"/><use xlink:href="#13" y="4.342"/></svg><svg x="12322"><use xlink:href="#a"/><use xlink:href="#4" y="2.171"/></svg><svg x="12444"><use xlink:href="#a"/><use xlink:href="#4" y="2.171"/><use xlink:href="#14" y="4.342"/></svg><svg x="12566"><use xlink:href="#a"/><use xlink:href="#4" y="2.171"/></svg><svg x="12688"><use xlink:href="#a"/><use xlink:href="#4" y="2.171"/><use xlink:href="#5" y="4.342"/></svg><svg x="12810"><use xlink:href="#a"/><use xlink:href="#4" y="2.171"/></svg><svg x="12932"><use xlink:href="#a"/><use xlink:href="#4" y="2.171"/><use xlink:href="#6" y="4.342"/></svg><svg x="13054"><use xlink:href="#a"/><use xlink:href="#4" y="2.171"/></svg><svg x="13176"><use xlink:href="#a"/><use xlink:href="#4" y="2.171"/><use xlink:href="#7" y="4.342"/></svg><svg x="13298"><use xlink:href="#a"/><use xlink:href="#4" y="2.171"/></svg><svg x="13420"><use xlink:href="#a"/><use xlink:href="#4" y="2.171"/><use xlink:href="#8" y="4.342"/></svg><svg x="13542"><use xlink:href="#a"/><use xlink:href="#4" y="2.171"/></svg><svg x="13664"><use xlink:href="#a"/><use xlink:href="#4" y="2.171"/><use xlink:href="#9" y="4.342"/></svg><svg x="13786"><use xlink:href="#a"/><use xlink:href="#4" y="2.171"/></svg><svg x="13908"><use xlink:href="#a"/><use xlink:href="#4" y="2.171"/><use xlink:href="#10" y="4.342"/></svg><svg x="14030"><use xlink:href="#a"/><use xlink:href="#4" y="2.171"/></svg><svg x="14152"><use xlink:href="#a"/><use xlink:href="#4" y="2.171"/><use xlink:href="#11" y="4.342"/></svg><svg x="14274"><use xlink:href="#a"/><use xlink:href="#4" y="2.171"/></svg><svg x="14396"><use xlink:href="#a"/><use xlink:href="#4" y="2.171"/><use xlink:href="#12" y="4.342"/></svg><svg x="14518"><use xlink:href="#a"/><use xlink:href="#4" y="2.171"/></svg><svg x="14640"><use xlink:href="#a"/><use xlink:href="#4" y="2.171"/><use xlink:href="#13" y="4.342"/></svg><svg x="14762"><use xlink:href="#a"/><use xlink:href="#4" y="2.171"/></svg><svg x="14884"><use xlink:href="#a"/><use xlink:href="#4" y="2.171"/><use xlink:href="#14" y="4.342"/></svg><svg x="15006"><use xlink:href="#a"/><use xlink:href="#4" y="2.171"/></svg><svg x="15128"><use xlink:href="#a"/><use xlink:href="#4" y="2.171"/><use xlink:href="#5" y="4.342"/></svg><svg x="15250"><use xlink:href="#a"/><use xlink:href="#4" y="2.171"/></svg><svg x="15372"><use xlink:href="#a"/><use xlink:href="#4" y="2.171"/><use xlink:href="#6" y="4.342"/></svg><svg x="15494"><use xlink:href="#a"/><use xlink:href="#4" y="2.171"/></svg><svg x="15616"><use xlink:href="#a"/><use xlink:href="#4" y="2.171"/><use xlink:href="#7" y="4.342"/></svg><svg x="15738"><use xlink:href="#a"/><use xlink:href="#4" y="2.171"/></svg><svg x="15860"><use xlink:href="#a"/><use xlink:href="#4" y="2.171"/><use xlink:href="#8" y="4.342"/></svg><svg x="15982"><use xlink:href="#a"/><use xlink:href="#4" y="2.171"/></svg><svg x="16104"><use xlink:href="#a"/><use xlink:href="#4" y="2.171"/><use xlink:href="#9" y="4.342"/></svg><svg x="16226"><use xlink:href="#a"/><use xlink:href="#4" y="2.171"/></svg><svg x="16348"><use xlink:href="#a"/><use xlink:href="#4" y="2.171"/><use xlink:href="#10" y="4.342"/></svg><svg x="16470"><use xlink:href="#a"/><use xlink:href="#4" y="2.171"/></svg><svg x="16592"><use xlink:href="#a"/><use xlink:href="#4" y="2.171"/><use xlink:href="#11" y="4.342"/></svg><svg x="16714"><use xlink:href="#a"/><use xlink:href="#4" y="2.171"/></svg><svg x="16836"><use xlink:href="#a"/><use xlink:href="#4" y="2.171"/><use xlink:href="#12" y="4.342"/></svg><svg x="16958"><use xlink:href="#a"/><use xlink:href="#4" y="2.171"/></svg><svg x="17080"><use xlink:href="#a"/><use xlink:href="#4" y="2.171"/><use xlink:href="#13" y="4.342"/></svg><svg x="17202"><use xlink:href="#a"/><use xlink:href="#4" y="2.171"/></svg><svg x="17324"><use xlink:href="#a"/><use xlink:href="#4" y="2.171"/><use xlink:href="#14" y="4.342"/></svg><svg x="17446"><use xlink:href="#a"/><use xlink:href="#4" y="2.171"/></svg><svg x="17568"><use xlink:href="#a"/><use xlink:href="#4" y="2.171"/><use xlink:href="#5" y="4.342"/></svg><svg x="17690"><use xlink:href="#a"/><use xlink:href="#4" y="2.171"/></svg><svg x="17812"><use xlink:href="#a"/><use xlink:href="#4" y="2.171"/><use xlink:href="#6" y="4.342"/></svg><svg x="17934"><use xlink:href="#a"/><use xlink:href="#4" y="2.171"/></svg><svg x="18056"><use xlink:href="#a"/><use xlink:href="#4" y="2.171"/><use xlink:href="#7" y="4.342"/></svg><svg x="18178"><use xlink:href="#a"/><use xlink:href="#4" y="2.171"/></svg><svg x="18300"><use xlink:href="#a"/><use xlink:href="#4" y="2.171"/><use xlink:href="#8" y="4.342"/></svg><svg x="18422"><use xlink:href="#a"/><use xlink:href="#4" y="2.171"/></svg><svg x="18544"><use xlink:href="#a"/><use xlink:href="#4" y="2.171"/><use xlink:href="#9" y="4.342"/></svg><svg x="18666"><use xlink:href="#a"/><use xlink:href="#4" y="2.171"/></svg><svg x="18788"><use xlink:href="#a"/><use xlink:href="#4" y="2.171"/><use xlink:href="#10" y="4.342"/></svg><svg x="18910"><use xlink:href="#a"/><use xlink:href="#4" y="2.171"/></svg><svg x="19032"><use xlink:href="#a"/><use xlink:href="#4" y="2.171"/><use xlink:href="#11" y="4.342"/></svg><svg x="19154"><use xlink:href="#a"/><use xlink:href="#4" y="2.171"/></svg><svg x="19276"><use xlink:href="#a"/><use xlink:href="#4" y="2.171"/><use xlink:href="#12" y="4.342"/></svg><svg x="19398"><use xlink:href="#a"/><use xlink:href="#4" y="2.171"/></svg><svg x="19520"><use xlink:href="#a"/><use xlink:href="#4" y="2.171"/><use xlink:href="#13" y="4.342"/></svg><svg x="19642"><use xlink:href="#a"/><use xlink:href="#4" y="2.171"/></svg><svg x="19764"><use xlink:href="#a"/><use xlink:href="#b" x="-.004" y="8.659"/><use xlink:href="#4" y="2.171"/><use xlink:href="#15" y="4.342"/></svg><svg x="19886"><use xlink:href="#a"/><use xlink:href="#b" x="-.004" y="8.659"/><use xlink:href="#4" y="2.171"/><use xlink:href="#15" y="4.342"/></svg><svg x="20008"><use xlink:href="#a"/><use xlink:href="#b" x="-.004" y="8.659"/><use xlink:href="#4" y="2.171"/><use xlink:href="#15" y="4.342"/></svg><svg x="20130"><use xlink:href="#a"/><use xlink:href="#b" x="-.004" y="8.659"/><use xlink:href="#4" y="2.171"/><use xlink:href="#15" y="4.342"/></svg><svg x="20252"><use xlink:href="#a"/><use xlink:href="#b" x="-.004" y="8.659"/><use xlink:href="#4" y="2.171"/><use xlink:href="#15" y="4.342"/></svg><svg x="20374"><use xlink:href="#a"/><use xlink:href="#b" x="-.004" y="8.659"/><use xlink:href="#4" y="2.171"/><use xlink:href="#15" y="4.342"/></svg><svg x="20496"><use xlink:href="#a"/><use xlink:href="#b" x="12.996" y="10.83"/><use xlink:href="#4" y="2.171"/><use xlink:href="#15" y="4.342"/><use xlink:href="#1" y="10.855"/></svg><svg x="20618"><use xlink:href="#a"/><use xlink:href="#b" x="12.996" y="10.83"/><use xlink:href="#4" y="2.171"/><use xlink:href="#15" y="4.342"/><use xlink:href="#1" y="10.855"/></svg><svg x="20740"><use xlink:href="#a"/><use xlink:href="#b" x="12.996" y="10.83"/><use xlink:href="#4" y="2.171"/><use xlink:href="#15" y="4.342"/><use xlink:href="#1" y="10.855"/></svg><svg x="20862"><use xlink:href="#a"/><use xlink:href="#b" x="12.996" y="10.83"/><use xlink:href="#4" y="2.171"/><use xlink:href="#15" y="4.342"/><use xlink:href="#16" y="10.855"/></svg><svg x="20984"><use xlink:href="#a"/><use xlink:href="#b" x="-.004" y="13.001"/><use xlink:href="#4" y="2.171"/><use xlink:href="#15" y="4.342"/><use xlink:href="#16" y="10.855"/></svg></svg></g></g></svg></svg>